<?xml version="1.0" encoding="UTF-8" standalone="no"?>
<!DOCTYPE svg PUBLIC "-//W3C//DTD SVG 1.1//EN" "http://www.w3.org/Graphics/SVG/1.1/DTD/svg11.dtd">
<!-- Created with Vectornator (http://vectornator.io/) -->
<svg height="100%" stroke-miterlimit="10" style="fill-rule:nonzero;clip-rule:evenodd;stroke-linecap:round;stroke-linejoin:round;" version="1.1" viewBox="0 0 585.705 128.305" width="100%" xml:space="preserve" xmlns="http://www.w3.org/2000/svg" xmlns:xlink="http://www.w3.org/1999/xlink">
<defs>
<linearGradient gradientTransform="matrix(1.68459 0 0 1.68459 -291.552 -153.029)" gradientUnits="userSpaceOnUse" id="LinearGradient" x1="529.613" x2="637.625" y1="377.201" y2="478.565">
<stop offset="0.0006317" stop-color="#5ac5ff"/>
<stop offset="1" stop-color="#73ffad"/>
</linearGradient>
<linearGradient gradientTransform="matrix(1 0 0 1 -447.582 411.084)" gradientUnits="userSpaceOnUse" id="LinearGradient_2" x1="59.8541" x2="403.028" y1="139.193" y2="139.193">
<stop offset="0.0006317" stop-color="#5ac5ff"/>
<stop offset="1" stop-color="#73ffad"/>
</linearGradient>
<linearGradient gradientTransform="matrix(2.33607 0 0 2.33607 -365.292 -535.363)" gradientUnits="userSpaceOnUse" id="LinearGradient_3" x1="160.299" x2="400.133" y1="242.552" y2="274.454">
<stop offset="0" stop-color="#5ac5ff"/>
<stop offset="1" stop-color="#73ffad"/>
</linearGradient>
<linearGradient gradientTransform="matrix(2.33607 0 0 2.33607 -365.292 -535.363)" gradientUnits="userSpaceOnUse" id="LinearGradient_4" x1="160.207" x2="403.968" y1="243.416" y2="276.151">
<stop offset="0" stop-color="#5ac5ff"/>
<stop offset="1" stop-color="#73ffad"/>
</linearGradient>
<linearGradient gradientTransform="matrix(2.33607 0 0 2.33607 -365.292 -535.363)" gradientUnits="userSpaceOnUse" id="LinearGradient_5" x1="158.789" x2="410.185" y1="244.339" y2="277.492">
<stop offset="0" stop-color="#5ac5ff"/>
<stop offset="1" stop-color="#73ffad"/>
</linearGradient>
<linearGradient gradientTransform="matrix(2.33607 0 0 2.33607 -365.292 -535.363)" gradientUnits="userSpaceOnUse" id="LinearGradient_6" x1="163.142" x2="403.047" y1="240.145" y2="273.883">
<stop offset="0" stop-color="#5ac5ff"/>
<stop offset="1" stop-color="#73ffad"/>
</linearGradient>
<linearGradient gradientTransform="matrix(2.33607 0 0 2.33607 -365.292 -535.363)" gradientUnits="userSpaceOnUse" id="LinearGradient_7" x1="170.572" x2="407.978" y1="241.598" y2="275.179">
<stop offset="0" stop-color="#5ac5ff"/>
<stop offset="1" stop-color="#73ffad"/>
</linearGradient>
<linearGradient gradientTransform="matrix(2.33607 0 0 2.33607 -365.292 -535.363)" gradientUnits="userSpaceOnUse" id="LinearGradient_8" x1="171.584" x2="396.546" y1="244.503" y2="276.245">
<stop offset="0" stop-color="#5ac5ff"/>
<stop offset="1" stop-color="#73ffad"/>
</linearGradient>
<linearGradient gradientTransform="matrix(2.33607 0 0 2.33607 -365.292 -535.363)" gradientUnits="userSpaceOnUse" id="LinearGradient_9" x1="161.75" x2="407.976" y1="242.665" y2="276.26">
<stop offset="0" stop-color="#5ac5ff"/>
<stop offset="1" stop-color="#73ffad"/>
</linearGradient>
</defs>
<clipPath id="ArtboardFrame">
<rect height="128.305" width="585.705" x="0" y="0"/>
</clipPath>
<g clip-path="url(#ArtboardFrame)" id="Capa-1">
<path d="M754.407 479.429C746.715 479.994 739.483 483.54 734.341 489.497L721.685 504.18C718.366 502.176 715.059 500.174 711.407 498.587C701.527 494.291 691.043 492.154 679.874 492.154C668.705 492.154 658.151 494.291 648.271 498.587C638.39 502.883 629.843 508.692 622.54 516.066C615.238 523.441 609.427 532.056 605.131 541.936C600.835 551.817 598.698 562.37 598.698 573.54C598.698 584.709 600.835 595.193 605.131 605.073C609.426 614.953 615.238 623.638 622.54 631.013C629.843 638.387 638.39 644.197 648.271 648.492C658.151 652.788 668.705 654.925 679.874 654.925C691.043 654.925 701.527 652.788 711.407 648.492C721.287 644.197 729.973 638.387 737.347 631.013C744.722 623.638 750.531 614.953 754.827 605.073C759.123 595.193 761.259 584.709 761.259 573.54C761.259 566.017 759.919 558.882 757.973 551.935L778.739 527.883C789.317 515.629 787.986 497.069 775.732 486.491C769.773 481.346 762.092 478.865 754.407 479.429ZM755.246 490.826C759.815 490.49 764.51 491.931 768.251 495.161C775.734 501.62 776.529 512.918 770.069 520.401L753.498 539.559L692.809 609.897C685.994 617.792 673.935 618.21 666.589 610.806L634.776 578.714C627.814 571.696 627.828 560.365 634.846 553.403C641.864 546.441 653.195 546.525 660.157 553.543L678.336 571.862L731.054 510.822L743.01 496.979C746.24 493.237 750.678 491.161 755.246 490.826Z" fill="url(#LinearGradient)" fill-rule="nonzero" opacity="1" stroke="none"/>
<path d="M-387.728 458.684L-44.5545 458.684L-44.5545 641.87L-387.728 641.87L-387.728 458.684Z" fill="url(#LinearGradient_2)" fill-rule="nonzero" opacity="1" stroke="none"/>
<path d="M39.3784 30.8131C39.6695 30.1583 40.1606 29.5944 40.8518 29.1214C41.543 28.6485 42.2888 28.412 43.0892 28.412L58.3689 28.412C59.0965 28.412 59.8059 28.6485 60.4972 29.1214C61.1884 29.5944 61.6795 30.1583 61.9706 30.8131L93.8397 105.029C94.1307 105.684 94.0761 106.375 93.676 107.103C93.2758 107.831 92.4936 108.194 91.3294 108.194L72.6664 108.194C71.866 108.194 71.1202 107.958 70.429 107.485C69.7377 107.012 69.2102 106.448 68.8464 105.793L65.8996 99.2445C65.5358 98.5895 65.0083 98.0255 64.3171 97.5525C63.6259 97.0795 62.9164 96.8435 62.1888 96.8435L39.1601 96.8435C38.3598 96.8435 37.614 97.0795 36.9227 97.5525C36.2315 98.0255 35.7404 98.5895 35.4493 99.2445L32.3934 105.793C32.1024 106.448 31.6112 107.012 30.92 107.485C30.2288 107.958 29.5194 108.194 28.7918 108.194L10.0195 108.194C9.65568 108.194 9.27369 108.122 8.8735 107.976C8.47332 107.831 8.1459 107.612 7.89124 107.321C7.63657 107.03 7.47286 106.666 7.4001 106.23C7.32734 105.793 7.43648 105.284 7.72752 104.702M45.8177 78.2895L55.5312 78.2895C56.2589 78.2895 56.7864 78.0525 57.1138 77.5795C57.4412 77.1065 57.423 76.5435 57.0592 75.8883C56.3316 74.0692 55.4585 71.941 54.4398 69.5035C53.4212 67.066 52.4753 64.7923 51.6022 62.6822C51.3111 62.0274 50.9837 61.7 50.6199 61.7C50.2561 61.7 49.9287 62.0274 49.6376 62.6822L44.1806 75.8883C43.8896 76.5435 43.8896 77.1065 44.1806 77.5795" fill="url(#LinearGradient_3)" fill-rule="nonzero" opacity="1" stroke="none"/>
<path d="M135.204 86.6935L125.709 86.6935C124.981 86.6935 124.363 86.9475 123.853 87.4575C123.344 87.9665 123.089 88.5845 123.089 89.3125L123.089 105.575C123.089 106.303 122.835 106.921 122.325 107.43C121.816 107.94 121.197 108.194 120.47 108.194L103.99 108.194C103.262 108.194 102.643 107.94 102.134 107.43C101.625 106.921 101.37 106.303 101.37 105.575L101.37 30.9222C101.37 30.1946 101.625 29.5762 102.134 29.0669C102.643 28.5575 103.262 28.3029 103.99 28.3029L137.387 28.3029C141.461 28.3029 145.299 29.0669 148.901 30.5948C152.503 32.1228 155.631 34.2329 158.287 36.925C160.943 39.6171 163.053 42.7458 164.617 46.3111C166.182 49.8764 166.964 53.6963 166.964 57.7709C166.964 61.8455 166.309 65.6472 164.999 69.1761C163.69 72.705 161.707 75.7609 159.051 78.3435C156.395 80.9265 153.085 82.9645 149.119 84.4555M135.968 48.3848L125.709 48.3848C124.981 48.3848 124.363 48.6394 123.853 49.1488C123.344 49.6581 123.089 50.2765 123.089 51.0042L123.089 63.8828C123.089 64.6104 123.344 65.2288 123.853 65.7382C124.363 66.2475 124.981 66.5021 125.709 66.5021L137.387 66.5021C140.152 66.5021 142.171 65.6108 143.444 63.8282C144.717 62.0456 145.354 60.0265 145.354 57.7709C145.354 56.6067 145.154 55.4607 144.754 54.3329C144.353 53.2052 143.753 52.2047 142.953 51.3316C142.152 50.4585 141.17 49.749 140.006 49.2033" fill="url(#LinearGradient_4)" fill-rule="nonzero" opacity="1" stroke="none"/>
<path d="M209.201 86.6935L199.706 86.6935C198.978 86.6935 198.36 86.9475 197.851 87.4575C197.341 87.9665 197.087 88.5845 197.087 89.3125L197.087 105.575C197.087 106.303 196.832 106.921 196.323 107.43C195.813 107.94 195.195 108.194 194.467 108.194L177.987 108.194C177.259 108.194 176.641 107.94 176.132 107.43C175.622 106.921 175.368 106.303 175.368 105.575L175.368 30.9222C175.368 30.1946 175.622 29.5762 176.132 29.0669C176.641 28.5575 177.259 28.3029 177.987 28.3029L211.384 28.3029C215.459 28.3029 219.297 29.0669 222.898 30.5948C226.5 32.1228 229.629 34.2329 232.285 36.925C234.94 39.6171 237.05 42.7458 238.615 46.3111C240.179 49.8764 240.961 53.6963 240.961 57.7709C240.961 61.8455 240.306 65.6472 238.997 69.1761C237.687 72.705 235.704 75.7609 233.049 78.3435C230.393 80.9265 227.082 82.9645 223.117 84.4555M209.965 48.3848L199.706 48.3848C198.978 48.3848 198.36 48.6394 197.851 49.1488C197.341 49.6581 197.087 50.2765 197.087 51.0042L197.087 63.8828C197.087 64.6104 197.341 65.2288 197.851 65.7382C198.36 66.2475 198.978 66.5021 199.706 66.5021L211.384 66.5021C214.149 66.5021 216.168 65.6108 217.441 63.8282C218.715 62.0456 219.351 60.0265 219.351 57.7709C219.351 56.6067 219.151 55.4607 218.751 54.3329C218.351 53.2052 217.751 52.2047 216.95 51.3316C216.15 50.4585 215.168 49.749 214.004 49.2033" fill="url(#LinearGradient_5)" fill-rule="nonzero" opacity="1" stroke="none"/>
<path d="M249.474 31.0314C249.474 30.3038 249.729 29.6853 250.238 29.176C250.748 28.6667 251.366 28.412 252.094 28.412L268.574 28.412C269.302 28.412 269.92 28.6667 270.429 29.176C270.939 29.6853 271.193 30.3038 271.193 31.0314L271.193 75.2334C271.193 78.0715 271.648 80.4175 272.558 82.2725C273.467 84.1285 274.595 85.5835 275.941 86.6385C277.287 87.6935 278.724 88.4395 280.252 88.8765C281.78 89.3125 283.162 89.5305 284.399 89.5305C285.636 89.5305 287.019 89.3125 288.547 88.8765C290.075 88.4395 291.493 87.6935 292.803 86.6385C294.113 85.5835 295.222 84.1285 296.132 82.2725C297.041 80.4175 297.496 78.0715 297.496 75.2334L297.496 31.0314C297.496 30.3038 297.751 29.6853 298.26 29.176C298.77 28.6667 299.388 28.412 300.116 28.412L316.596 28.412C317.323 28.412 317.942 28.6667 318.451 29.176C318.961 29.6853 319.215 30.3038 319.215 31.0314L319.215 75.2334C319.215 80.3995 318.397 85.0925 316.76 89.3125C315.122 93.5325 312.776 97.1345 309.72 100.118C306.664 103.101 302.99 105.411 298.697 107.048C294.404 108.686 289.638 109.504 284.399 109.504C279.161 109.504 274.395 108.686 270.102 107.048C265.809 105.411 262.135 103.101 259.079 100.118C256.023 97.1345 253.658 93.5325 251.985 89.3125C250.311 85.0925 249.474 80.3995 249.474 75.2334" fill="url(#LinearGradient_6)" fill-rule="nonzero" opacity="1" stroke="none"/>
<path d="M410.566 30.9222L410.566 105.575C410.566 106.303 410.311 106.921 409.802 107.43C409.293 107.94 408.674 108.194 407.947 108.194L391.794 108.194C391.066 108.194 390.302 107.976 389.502 107.54C388.702 107.103 388.083 106.594 387.647 106.012L359.161 65.9564C358.724 65.3744 358.269 65.1379 357.797 65.247C357.324 65.3562 357.087 65.7745 357.087 66.5021L357.087 105.575C357.087 106.303 356.832 106.921 356.323 107.43C355.814 107.94 355.195 108.194 354.468 108.194L338.206 108.194C337.478 108.194 336.86 107.94 336.35 107.43C335.841 106.921 335.586 106.303 335.586 105.575L335.586 30.9222C335.586 30.1946 335.841 29.5762 336.35 29.0669C336.86 28.5575 337.478 28.3029 338.206 28.3029L354.577 28.3029C355.304 28.3029 356.068 28.503 356.869 28.9031C357.669 29.3033 358.288 29.7945 358.724 30.3765L387.101 70.4312C387.537 71.0133 387.992 71.268 388.465 71.1952C388.938 71.1224 389.174 70.7223 389.174 69.9947L389.174 30.9222C389.174 30.1946 389.429 29.5762 389.938 29.0669C390.448 28.5575 391.066 28.3029 391.794 28.3029L407.947 28.3029C408.674 28.3029 409.293 28.5575 409.802 29.0669" fill="url(#LinearGradient_7)" fill-rule="nonzero" opacity="1" stroke="none"/>
<path d="M480.416 48.3848L465.136 48.3848C464.409 48.3848 463.79 48.6394 463.281 49.1488C462.772 49.6581 462.517 50.2765 462.517 51.0042L462.517 105.575C462.517 106.303 462.281 106.921 461.808 107.43C461.335 107.94 460.698 108.194 459.898 108.194L443.527 108.194C442.799 108.194 442.181 107.94 441.671 107.43C441.162 106.921 440.907 106.303 440.907 105.575L440.907 51.0042C440.907 50.2765 440.671 49.6581 440.198 49.1488C439.725 48.6394 439.088 48.3848 438.288 48.3848L422.79 48.3848C422.062 48.3848 421.444 48.1301 420.934 47.6208C420.425 47.1115 420.17 46.493 420.17 45.7654L420.17 30.9222C420.17 30.1946 420.425 29.5762 420.934 29.0669C421.444 28.5575 422.062 28.3029 422.79 28.3029L480.416 28.3029C481.217 28.3029 481.853 28.5575 482.326 29.0669C482.799 29.5762 483.036 30.1946 483.036 30.9222L483.036 45.7654C483.036 46.493 482.799 47.1115 482.326 47.6208" fill="url(#LinearGradient_8)" fill-rule="nonzero" opacity="1" stroke="none"/>
<path d="M565.334 20.4341C561.425 20.721 557.75 22.5233 555.137 25.5501L548.707 33.0109C547.02 31.9928 545.34 30.9754 543.484 30.1687C538.464 27.9859 533.137 26.9001 527.461 26.9001C521.786 26.9001 516.423 27.986 511.403 30.1687C506.382 32.3515 502.039 35.3034 498.329 39.0506C494.618 42.7978 491.665 47.1753 489.482 52.1958C487.299 57.2163 486.214 62.5789 486.214 68.2543C486.214 73.9296 487.299 79.2565 489.482 84.2775C491.665 89.2975 494.618 93.7105 498.329 97.4575C502.039 101.206 506.382 104.158 511.403 106.34C516.423 108.523 521.786 109.609 527.461 109.609C533.137 109.609 538.464 108.523 543.484 106.34C548.505 104.158 552.918 101.206 556.665 97.4575C560.412 93.7105 563.364 89.2975 565.547 84.2775C567.73 79.2565 568.815 73.9297 568.815 68.2543C568.815 64.4316 568.134 60.8062 567.146 57.2762L577.697 45.0548C582.599 39.3769 582.685 30.8375 577.685 25.5321C574.924 22.6014 570.901 20.5795 565.38 20.4701M565.76 26.2251C568.081 26.0547 570.467 26.7867 572.368 28.4278C576.17 31.7102 576.574 37.451 573.292 41.2533L564.872 50.9879L534.034 86.7285C530.571 90.7405 524.444 90.9525 520.711 87.1905L504.546 70.8833C501.008 67.3174 501.016 61.5601 504.582 58.0223C508.148 54.4846 513.905 54.5274 517.443 58.0934L526.68 67.4016L553.468 36.386L558.101 31.0207C558.101 31.0207 560.012 28.7159 561.926 27.5336C563.841 26.3513 565.758 26.2916 565.758 26.2916" fill="url(#LinearGradient_9)" fill-rule="nonzero" opacity="1" stroke="none"/>
</g>
</svg>
